<svg xmlns="http://www.w3.org/2000/svg" xmlns:v="https://svgstorm.com"
viewBox = "0 0 512 512"
width="512"
height="512">
<g fill="None" fill-opacity="0.0" stroke="#000000" stroke-opacity="0.00" stroke-width="0.3"><path d="
M 0.00 510.00 
C 12.60 492.94 17.76 469.51 31.00 453.00
C 30.77 452.84 31.00 452.00 31.00 452.00
C 36.60 437.75 45.59 423.35 52.92 409.92 C 60.26 396.50 66.56 379.76 76.00 368.00
C 75.75 367.75 76.00 367.00 76.00 367.00
C 81.96 354.82 97.37 347.62 105.75 336.75 C 114.13 325.89 126.44 317.19 135.75 306.75 C 145.07 296.32 156.55 286.51 166.25 276.25 C 175.95 265.99 186.42 256.44 196.25 246.25 C 206.08 236.05 216.40 226.51 226.25 216.25 C 236.09 205.99 247.02 195.98 257.00 186.00
C 288.58 154.42 320.46 122.54 352.00 91.00
C 356.92 86.08 362.13 80.87 367.00 76.00
C 376.25 66.75 385.80 57.20 395.00 48.00
C 400.46 36.81 413.84 31.52 421.25 21.25 C 428.65 10.98 442.92 3.44 454.00 0.00
L 0.00 0.00
L 0.00 510.00 Z"/>
</g>
<g fill="None" fill-opacity="0.0" stroke="#FE745B" stroke-opacity="0.98" stroke-width="0.3"><path d="
M 395.00 48.00 
C 394.80 48.40 395.00 49.00 395.00 49.00
C 407.58 57.79 418.36 71.87 429.25 82.75 C 440.13 93.63 454.25 104.47 463.00 117.00
C 463.16 116.77 464.00 117.00 464.00 117.00
C 475.18 111.53 480.48 98.16 490.75 90.75 C 501.02 83.34 508.56 69.09 512.00 58.00
L 512.00 38.00
C 507.69 19.91 492.02 4.29 474.00 0.00
L 454.00 0.00
C 442.92 3.44 428.65 10.98 421.25 21.25 C 413.84 31.52 400.46 36.81 395.00 48.00 Z"/>
</g>
<g fill="None" fill-opacity="0.0" stroke="#000000" stroke-opacity="0.00" stroke-width="0.3"><path d="
M 512.00 38.00 
L 512.00 0.00
L 474.00 0.00
C 492.02 4.29 507.69 19.91 512.00 38.00 Z"/>
</g>
<g fill="None" fill-opacity="0.0" stroke="#005555" stroke-opacity="0.01" stroke-width="0.3"><path d="
M 367.00 76.00 
C 375.68 67.32 384.99 55.99 395.00 49.00
C 395.00 49.00 394.80 48.40 395.00 48.00
C 385.80 57.20 376.25 66.75 367.00 76.00 Z"/>
</g>
<g fill="None" fill-opacity="0.0" stroke="#174460" stroke-opacity="1.00" stroke-width="0.3"><path d="
M 367.00 76.00 
C 362.91 80.09 355.51 85.87 353.00 91.00
C 352.80 91.40 353.00 92.00 353.00 92.00
C 365.68 100.86 376.16 115.16 387.00 126.00
C 400.32 132.51 408.85 150.51 421.00 159.00
C 426.30 155.29 431.48 149.52 436.00 145.00
C 444.68 136.32 456.01 127.01 463.00 117.00
C 454.25 104.47 440.13 93.63 429.25 82.75 C 418.36 71.87 407.58 57.79 395.00 49.00
C 384.99 55.99 375.68 67.32 367.00 76.00 Z"/>
</g>
<g fill="None" fill-opacity="0.0" stroke="#000000" stroke-opacity="0.00" stroke-width="0.3"><path d="
M 464.00 117.00 
C 454.75 126.25 445.20 135.80 436.00 145.00
C 431.08 149.92 425.87 155.13 421.00 160.00
C 389.42 191.59 357.54 223.46 326.00 255.00
C 312.26 271.07 296.07 285.06 281.25 300.25 C 266.42 315.44 251.06 331.05 235.75 345.75 C 220.45 360.45 206.13 377.34 190.25 391.25 C 174.37 405.15 161.62 425.20 144.00 436.00
C 130.82 444.07 116.87 451.95 102.75 458.75 C 88.64 465.56 74.59 475.26 60.00 481.00
C 59.57 481.17 59.00 481.00 59.00 481.00
C 42.45 494.27 19.01 499.42 2.00 512.00
L 512.00 512.00
L 512.00 58.00
C 508.56 69.09 501.02 83.34 490.75 90.75 C 480.48 98.16 475.18 111.53 464.00 117.00 Z"/>
</g>
<g fill="None" fill-opacity="0.0" stroke="#004080" stroke-opacity="0.02" stroke-width="0.3"><path d="
M 352.00 91.00 
C 352.16 90.77 353.00 91.00 353.00 91.00
C 355.51 85.87 362.91 80.09 367.00 76.00
C 362.13 80.87 356.92 86.08 352.00 91.00 Z"/>
</g>
<g fill="None" fill-opacity="0.0" stroke="#FEBF40" stroke-opacity="0.02" stroke-width="0.3"><path d="
M 257.00 186.00 
C 272.60 170.40 290.18 155.36 304.75 138.75 C 319.33 122.14 339.43 108.99 352.00 91.00
C 320.46 122.54 288.58 154.42 257.00 186.00 Z"/>
</g>
<g fill="None" fill-opacity="0.0" stroke="#FECE47" stroke-opacity="0.66" stroke-width="0.3"><path d="
M 257.00 186.00 
C 237.08 205.92 217.88 226.96 197.25 246.25 C 176.62 265.54 158.04 288.29 136.75 306.75 C 115.47 325.22 98.95 350.95 76.00 367.00
C 76.00 367.00 75.75 367.75 76.00 368.00
C 76.25 368.25 77.00 368.00 77.00 368.00
C 91.64 347.05 114.80 332.03 131.75 312.75 C 148.71 293.47 168.81 276.30 186.75 257.75 C 204.69 239.20 223.66 220.19 242.25 202.25 C 260.83 184.31 277.90 164.24 297.25 147.25 C 316.60 130.26 332.02 106.67 353.00 92.00
C 353.00 92.00 352.80 91.40 353.00 91.00
C 353.00 91.00 352.16 90.77 352.00 91.00
C 339.43 108.99 319.33 122.14 304.75 138.75 C 290.18 155.36 272.60 170.40 257.00 186.00 Z"/>
</g>
<g fill="None" fill-opacity="0.0" stroke="#FFCD47" stroke-opacity="1.00" stroke-width="0.3"><path d="
M 77.00 368.00 
C 76.68 376.49 80.69 389.39 82.93 397.07 C 85.16 404.76 84.17 420.58 91.00 424.00
C 88.55 421.61 99.90 413.16 102.75 409.75 C 105.60 406.35 112.83 399.91 116.75 395.75 C 120.67 391.60 126.90 385.71 131.25 381.25 C 135.60 376.79 140.70 371.84 145.25 367.25 C 149.79 362.65 154.59 357.93 159.25 353.25 C 163.90 348.57 169.06 343.46 173.75 338.75 C 178.44 334.04 183.05 329.46 187.75 324.75 C 192.45 320.05 197.02 315.48 201.75 310.75 C 206.48 306.03 211.52 300.97 216.25 296.25 C 220.98 291.52 225.53 286.96 230.25 282.25 C 234.96 277.53 239.52 272.98 244.25 268.25 C 248.98 263.51 254.02 258.49 258.75 253.75 C 263.48 249.02 268.04 244.47 272.75 239.75 C 277.47 235.04 282.02 230.48 286.75 225.75 C 291.48 221.02 296.52 215.98 301.25 211.25 C 305.98 206.52 310.54 201.97 315.25 197.25 C 319.95 192.52 324.54 188.00 329.25 183.25 C 333.96 178.50 339.07 173.53 343.75 168.75 C 348.43 163.98 353.14 159.56 357.75 154.75 C 362.36 149.95 367.25 145.68 371.75 140.75 C 376.25 135.82 382.21 131.42 386.00 126.00
C 377.05 113.20 362.25 104.51 353.00 92.00
C 332.02 106.67 316.60 130.26 297.25 147.25 C 277.90 164.24 260.83 184.31 242.25 202.25 C 223.66 220.19 204.69 239.20 186.75 257.75 C 168.81 276.30 148.71 293.47 131.75 312.75 C 114.80 332.03 91.64 347.05 77.00 368.00 Z"/>
</g>
<g fill="None" fill-opacity="0.0" stroke="#D2B24C" stroke-opacity="1.00" stroke-width="0.3"><path d="
M 386.00 126.00 
C 386.16 125.77 387.00 126.00 387.00 126.00
C 376.16 115.16 365.68 100.86 353.00 92.00
C 362.25 104.51 377.05 113.20 386.00 126.00 Z"/>
</g>
<g fill="None" fill-opacity="0.0" stroke="#005555" stroke-opacity="0.01" stroke-width="0.3"><path d="
M 436.00 145.00 
C 445.20 135.80 454.75 126.25 464.00 117.00
C 464.00 117.00 463.16 116.77 463.00 117.00
C 456.01 127.01 444.68 136.32 436.00 145.00 Z"/>
</g>
<g fill="None" fill-opacity="0.0" stroke="#FEB04E" stroke-opacity="0.98" stroke-width="0.3"><path d="
M 91.00 424.00 
C 97.83 427.42 109.43 428.64 117.07 429.93 C 124.72 431.21 136.90 436.44 144.00 436.00
C 161.62 425.20 174.37 405.15 190.25 391.25 C 206.13 377.34 220.45 360.45 235.75 345.75 C 251.06 331.05 266.42 315.44 281.25 300.25 C 296.07 285.06 312.26 271.07 326.00 255.00
C 340.20 238.38 357.23 222.16 373.25 207.25 C 389.27 192.34 403.19 172.45 421.00 160.00
C 421.23 159.84 421.00 159.00 421.00 159.00
C 408.85 150.51 400.32 132.51 387.00 126.00
C 387.00 126.00 386.16 125.77 386.00 126.00
C 382.21 131.42 376.25 135.82 371.75 140.75 C 367.25 145.68 362.36 149.95 357.75 154.75 C 353.14 159.56 348.43 163.98 343.75 168.75 C 339.07 173.53 333.96 178.50 329.25 183.25 C 324.54 188.00 319.95 192.52 315.25 197.25 C 310.54 201.97 305.98 206.52 301.25 211.25 C 296.52 215.98 291.48 221.02 286.75 225.75 C 282.02 230.48 277.47 235.04 272.75 239.75 C 268.04 244.47 263.48 249.02 258.75 253.75 C 254.02 258.49 248.98 263.51 244.25 268.25 C 239.52 272.98 234.96 277.53 230.25 282.25 C 225.53 286.96 220.98 291.52 216.25 296.25 C 211.52 300.97 206.48 306.03 201.75 310.75 C 197.02 315.48 192.45 320.05 187.75 324.75 C 183.05 329.46 178.44 334.04 173.75 338.75 C 169.06 343.46 163.90 348.57 159.25 353.25 C 154.59 357.93 149.79 362.65 145.25 367.25 C 140.70 371.84 135.60 376.79 131.25 381.25 C 126.90 385.71 120.67 391.60 116.75 395.75 C 112.83 399.91 105.60 406.35 102.75 409.75 C 99.90 413.16 88.55 421.61 91.00 424.00 Z"/>
</g>
<g fill="None" fill-opacity="0.0" stroke="#004080" stroke-opacity="0.02" stroke-width="0.3"><path d="
M 421.00 159.00 
C 421.00 159.00 421.23 159.84 421.00 160.00
C 425.87 155.13 431.08 149.92 436.00 145.00
C 431.48 149.52 426.30 155.29 421.00 159.00 Z"/>
</g>
<g fill="None" fill-opacity="0.0" stroke="#FEBF40" stroke-opacity="0.02" stroke-width="0.3"><path d="
M 326.00 255.00 
C 357.54 223.46 389.42 191.59 421.00 160.00
C 403.19 172.45 389.27 192.34 373.25 207.25 C 357.23 222.16 340.20 238.38 326.00 255.00 Z"/>
</g>
<g fill="None" fill-opacity="0.0" stroke="#FEAA55" stroke-opacity="0.01" stroke-width="0.3"><path d="
M 76.00 367.00 
C 98.95 350.95 115.47 325.22 136.75 306.75 C 158.04 288.29 176.62 265.54 197.25 246.25 C 217.88 226.96 237.08 205.92 257.00 186.00
C 247.02 195.98 236.09 205.99 226.25 216.25 C 216.40 226.51 206.08 236.05 196.25 246.25 C 186.42 256.44 175.95 265.99 166.25 276.25 C 156.55 286.51 145.07 296.32 135.75 306.75 C 126.44 317.19 114.13 325.89 105.75 336.75 C 97.37 347.62 81.96 354.82 76.00 367.00 Z"/>
</g>
<g fill="None" fill-opacity="0.0" stroke="#FFEAB3" stroke-opacity="0.98" stroke-width="0.3"><path d="
M 31.00 452.00 
C 36.29 454.20 41.69 462.20 45.75 466.25 C 49.81 470.30 57.82 475.77 60.00 481.00
C 74.59 475.26 88.64 465.56 102.75 458.75 C 116.87 451.95 130.82 444.07 144.00 436.00
C 136.90 436.44 124.72 431.21 117.07 429.93 C 109.43 428.64 97.83 427.42 91.00 424.00
C 84.17 420.58 85.16 404.76 82.93 397.07 C 80.69 389.39 76.68 376.49 77.00 368.00
C 77.00 368.00 76.25 368.25 76.00 368.00
C 66.56 379.76 60.26 396.50 52.92 409.92 C 45.59 423.35 36.60 437.75 31.00 452.00 Z"/>
</g>
<g fill="None" fill-opacity="0.0" stroke="#788983" stroke-opacity="0.97" stroke-width="0.3"><path d="
M 31.00 453.00 
C 40.43 459.59 52.45 471.63 59.00 481.00
C 59.00 481.00 59.57 481.17 60.00 481.00
C 57.82 475.77 49.81 470.30 45.75 466.25 C 41.69 462.20 36.29 454.20 31.00 452.00
C 31.00 452.00 30.77 452.84 31.00 453.00 Z"/>
</g>
<g fill="None" fill-opacity="0.0" stroke="#164461" stroke-opacity="0.94" stroke-width="0.3"><path d="
M 0.00 510.00 
L 0.00 512.00
L 2.00 512.00
C 19.01 499.42 42.45 494.27 59.00 481.00
C 52.45 471.63 40.43 459.59 31.00 453.00
C 17.76 469.51 12.60 492.94 0.00 510.00 Z"/>
</g>
<g fill="#000000" fill-opacity="0.00" stroke="None">
<path d="
M 0.00 510.00 
C 12.60 492.94 17.76 469.51 31.00 453.00
C 30.77 452.84 31.00 452.00 31.00 452.00
C 36.60 437.75 45.59 423.35 52.92 409.92 C 60.26 396.50 66.56 379.76 76.00 368.00
C 75.75 367.75 76.00 367.00 76.00 367.00
C 81.96 354.82 97.37 347.62 105.75 336.75 C 114.13 325.89 126.44 317.19 135.75 306.75 C 145.07 296.32 156.55 286.51 166.25 276.25 C 175.95 265.99 186.42 256.44 196.25 246.25 C 206.08 236.05 216.40 226.51 226.25 216.25 C 236.09 205.99 247.02 195.98 257.00 186.00
C 288.58 154.42 320.46 122.54 352.00 91.00
C 356.92 86.08 362.13 80.87 367.00 76.00
C 376.25 66.75 385.80 57.20 395.00 48.00
C 400.46 36.81 413.84 31.52 421.25 21.25 C 428.65 10.98 442.92 3.44 454.00 0.00
L 0.00 0.00
L 0.00 510.00 Z"/>
</g>
<g fill="#FE745B" fill-opacity="0.98" stroke="None">
<path d="
M 395.00 48.00 
C 394.80 48.40 395.00 49.00 395.00 49.00
C 407.58 57.79 418.36 71.87 429.25 82.75 C 440.13 93.63 454.25 104.47 463.00 117.00
C 463.16 116.77 464.00 117.00 464.00 117.00
C 475.18 111.53 480.48 98.16 490.75 90.75 C 501.02 83.34 508.56 69.09 512.00 58.00
L 512.00 38.00
C 507.69 19.91 492.02 4.29 474.00 0.00
L 454.00 0.00
C 442.92 3.44 428.65 10.98 421.25 21.25 C 413.84 31.52 400.46 36.81 395.00 48.00 Z"/>
</g>
<g fill="#000000" fill-opacity="0.00" stroke="None">
<path d="
M 512.00 38.00 
L 512.00 0.00
L 474.00 0.00
C 492.02 4.29 507.69 19.91 512.00 38.00 Z"/>
</g>
<g fill="#005555" fill-opacity="0.01" stroke="None">
<path d="
M 367.00 76.00 
C 375.68 67.32 384.99 55.99 395.00 49.00
C 395.00 49.00 394.80 48.40 395.00 48.00
C 385.80 57.20 376.25 66.75 367.00 76.00 Z"/>
</g>
<g fill="#174460" fill-opacity="1.00" stroke="None">
<path d="
M 367.00 76.00 
C 362.91 80.09 355.51 85.87 353.00 91.00
C 352.80 91.40 353.00 92.00 353.00 92.00
C 365.68 100.86 376.16 115.16 387.00 126.00
C 400.32 132.51 408.85 150.51 421.00 159.00
C 426.30 155.29 431.48 149.52 436.00 145.00
C 444.68 136.32 456.01 127.01 463.00 117.00
C 454.25 104.47 440.13 93.63 429.25 82.75 C 418.36 71.87 407.58 57.79 395.00 49.00
C 384.99 55.99 375.68 67.32 367.00 76.00 Z"/>
</g>
<g fill="#000000" fill-opacity="0.00" stroke="None">
<path d="
M 464.00 117.00 
C 454.75 126.25 445.20 135.80 436.00 145.00
C 431.08 149.92 425.87 155.13 421.00 160.00
C 389.42 191.59 357.54 223.46 326.00 255.00
C 312.26 271.07 296.07 285.06 281.25 300.25 C 266.42 315.44 251.06 331.05 235.75 345.75 C 220.45 360.45 206.13 377.34 190.25 391.25 C 174.37 405.15 161.62 425.20 144.00 436.00
C 130.82 444.07 116.87 451.95 102.75 458.75 C 88.64 465.56 74.59 475.26 60.00 481.00
C 59.57 481.17 59.00 481.00 59.00 481.00
C 42.45 494.27 19.01 499.42 2.00 512.00
L 512.00 512.00
L 512.00 58.00
C 508.56 69.09 501.02 83.34 490.75 90.75 C 480.48 98.16 475.18 111.53 464.00 117.00 Z"/>
</g>
<g fill="#004080" fill-opacity="0.02" stroke="None">
<path d="
M 352.00 91.00 
C 352.16 90.77 353.00 91.00 353.00 91.00
C 355.51 85.87 362.91 80.09 367.00 76.00
C 362.13 80.87 356.92 86.08 352.00 91.00 Z"/>
</g>
<g fill="#FEBF40" fill-opacity="0.02" stroke="None">
<path d="
M 257.00 186.00 
C 272.60 170.40 290.18 155.36 304.75 138.75 C 319.33 122.14 339.43 108.99 352.00 91.00
C 320.46 122.54 288.58 154.42 257.00 186.00 Z"/>
</g>
<g fill="#FECE47" fill-opacity="0.66" stroke="None">
<path d="
M 257.00 186.00 
C 237.08 205.92 217.88 226.96 197.25 246.25 C 176.62 265.54 158.04 288.29 136.75 306.75 C 115.47 325.22 98.95 350.95 76.00 367.00
C 76.00 367.00 75.75 367.75 76.00 368.00
C 76.25 368.25 77.00 368.00 77.00 368.00
C 91.64 347.05 114.80 332.03 131.75 312.75 C 148.71 293.47 168.81 276.30 186.75 257.75 C 204.69 239.20 223.66 220.19 242.25 202.25 C 260.83 184.31 277.90 164.24 297.25 147.25 C 316.60 130.26 332.02 106.67 353.00 92.00
C 353.00 92.00 352.80 91.40 353.00 91.00
C 353.00 91.00 352.16 90.77 352.00 91.00
C 339.43 108.99 319.33 122.14 304.75 138.75 C 290.18 155.36 272.60 170.40 257.00 186.00 Z"/>
</g>
<g fill="#FFCD47" fill-opacity="1.00" stroke="None">
<path d="
M 77.00 368.00 
C 76.68 376.49 80.69 389.39 82.93 397.07 C 85.16 404.76 84.17 420.58 91.00 424.00
C 88.55 421.61 99.90 413.16 102.75 409.75 C 105.60 406.35 112.83 399.91 116.75 395.75 C 120.67 391.60 126.90 385.71 131.25 381.25 C 135.60 376.79 140.70 371.84 145.25 367.25 C 149.79 362.65 154.59 357.93 159.25 353.25 C 163.90 348.57 169.06 343.46 173.75 338.75 C 178.44 334.04 183.05 329.46 187.75 324.75 C 192.45 320.05 197.02 315.48 201.75 310.75 C 206.48 306.03 211.52 300.97 216.25 296.25 C 220.98 291.52 225.53 286.96 230.25 282.25 C 234.96 277.53 239.52 272.98 244.25 268.25 C 248.98 263.51 254.02 258.49 258.75 253.75 C 263.48 249.02 268.04 244.47 272.75 239.75 C 277.47 235.04 282.02 230.48 286.75 225.75 C 291.48 221.02 296.52 215.98 301.25 211.25 C 305.98 206.52 310.54 201.97 315.25 197.25 C 319.95 192.52 324.54 188.00 329.25 183.25 C 333.96 178.50 339.07 173.53 343.75 168.75 C 348.43 163.98 353.14 159.56 357.75 154.75 C 362.36 149.95 367.25 145.68 371.75 140.75 C 376.25 135.82 382.21 131.42 386.00 126.00
C 377.05 113.20 362.25 104.51 353.00 92.00
C 332.02 106.67 316.60 130.26 297.25 147.25 C 277.90 164.24 260.83 184.31 242.25 202.25 C 223.66 220.19 204.69 239.20 186.75 257.75 C 168.81 276.30 148.71 293.47 131.75 312.75 C 114.80 332.03 91.64 347.05 77.00 368.00 Z"/>
</g>
<g fill="#D2B24C" fill-opacity="1.00" stroke="None">
<path d="
M 386.00 126.00 
C 386.16 125.77 387.00 126.00 387.00 126.00
C 376.16 115.16 365.68 100.86 353.00 92.00
C 362.25 104.51 377.05 113.20 386.00 126.00 Z"/>
</g>
<g fill="#005555" fill-opacity="0.01" stroke="None">
<path d="
M 436.00 145.00 
C 445.20 135.80 454.75 126.25 464.00 117.00
C 464.00 117.00 463.16 116.77 463.00 117.00
C 456.01 127.01 444.68 136.32 436.00 145.00 Z"/>
</g>
<g fill="#FEB04E" fill-opacity="0.98" stroke="None">
<path d="
M 91.00 424.00 
C 97.83 427.42 109.43 428.64 117.07 429.93 C 124.72 431.21 136.90 436.44 144.00 436.00
C 161.62 425.20 174.37 405.15 190.25 391.25 C 206.13 377.34 220.45 360.45 235.75 345.75 C 251.06 331.05 266.42 315.44 281.25 300.25 C 296.07 285.06 312.26 271.07 326.00 255.00
C 340.20 238.38 357.23 222.16 373.25 207.25 C 389.27 192.34 403.19 172.45 421.00 160.00
C 421.23 159.84 421.00 159.00 421.00 159.00
C 408.85 150.51 400.32 132.51 387.00 126.00
C 387.00 126.00 386.16 125.77 386.00 126.00
C 382.21 131.42 376.25 135.82 371.75 140.75 C 367.25 145.68 362.36 149.95 357.75 154.75 C 353.14 159.56 348.43 163.98 343.75 168.75 C 339.07 173.53 333.96 178.50 329.25 183.25 C 324.54 188.00 319.95 192.52 315.25 197.25 C 310.54 201.97 305.98 206.52 301.25 211.25 C 296.52 215.98 291.48 221.02 286.75 225.75 C 282.02 230.48 277.47 235.04 272.75 239.75 C 268.04 244.47 263.48 249.02 258.75 253.75 C 254.02 258.49 248.98 263.51 244.25 268.25 C 239.52 272.98 234.96 277.53 230.25 282.25 C 225.53 286.96 220.98 291.52 216.25 296.25 C 211.52 300.97 206.48 306.03 201.75 310.75 C 197.02 315.48 192.45 320.05 187.75 324.75 C 183.05 329.46 178.44 334.04 173.75 338.75 C 169.06 343.46 163.90 348.57 159.25 353.25 C 154.59 357.93 149.79 362.65 145.25 367.25 C 140.70 371.84 135.60 376.79 131.25 381.25 C 126.90 385.71 120.67 391.60 116.75 395.75 C 112.83 399.91 105.60 406.35 102.75 409.75 C 99.90 413.16 88.55 421.61 91.00 424.00 Z"/>
</g>
<g fill="#004080" fill-opacity="0.02" stroke="None">
<path d="
M 421.00 159.00 
C 421.00 159.00 421.23 159.84 421.00 160.00
C 425.87 155.13 431.08 149.92 436.00 145.00
C 431.48 149.52 426.30 155.29 421.00 159.00 Z"/>
</g>
<g fill="#FEBF40" fill-opacity="0.02" stroke="None">
<path d="
M 326.00 255.00 
C 357.54 223.46 389.42 191.59 421.00 160.00
C 403.19 172.45 389.27 192.34 373.25 207.25 C 357.23 222.16 340.20 238.38 326.00 255.00 Z"/>
</g>
<g fill="#FEAA55" fill-opacity="0.01" stroke="None">
<path d="
M 76.00 367.00 
C 98.95 350.95 115.47 325.22 136.75 306.75 C 158.04 288.29 176.62 265.54 197.25 246.25 C 217.88 226.96 237.08 205.92 257.00 186.00
C 247.02 195.98 236.09 205.99 226.25 216.25 C 216.40 226.51 206.08 236.05 196.25 246.25 C 186.42 256.44 175.95 265.99 166.25 276.25 C 156.55 286.51 145.07 296.32 135.75 306.75 C 126.44 317.19 114.13 325.89 105.75 336.75 C 97.37 347.62 81.96 354.82 76.00 367.00 Z"/>
</g>
<g fill="#FFEAB3" fill-opacity="0.98" stroke="None">
<path d="
M 31.00 452.00 
C 36.29 454.20 41.69 462.20 45.75 466.25 C 49.81 470.30 57.82 475.77 60.00 481.00
C 74.59 475.26 88.64 465.56 102.75 458.75 C 116.87 451.95 130.82 444.07 144.00 436.00
C 136.90 436.44 124.72 431.21 117.07 429.93 C 109.43 428.64 97.83 427.42 91.00 424.00
C 84.17 420.58 85.16 404.76 82.93 397.07 C 80.69 389.39 76.68 376.49 77.00 368.00
C 77.00 368.00 76.25 368.25 76.00 368.00
C 66.56 379.76 60.26 396.50 52.92 409.92 C 45.59 423.35 36.60 437.75 31.00 452.00 Z"/>
</g>
<g fill="#788983" fill-opacity="0.97" stroke="None">
<path d="
M 31.00 453.00 
C 40.43 459.59 52.45 471.63 59.00 481.00
C 59.00 481.00 59.57 481.17 60.00 481.00
C 57.82 475.77 49.81 470.30 45.75 466.25 C 41.69 462.20 36.29 454.20 31.00 452.00
C 31.00 452.00 30.77 452.84 31.00 453.00 Z"/>
</g>
<g fill="#164461" fill-opacity="0.94" stroke="None">
<path d="
M 0.00 510.00 
L 0.00 512.00
L 2.00 512.00
C 19.01 499.42 42.45 494.27 59.00 481.00
C 52.45 471.63 40.43 459.59 31.00 453.00
C 17.76 469.51 12.60 492.94 0.00 510.00 Z"/>
</g>
</svg>